# xmcd
#
# Track frame offsets: 
#        150
#        18109
#        34984
#        51241
#        68190
#        88175
#        105978
#        124696
#        140164
#        155769
#        169976
#        186901
#
# Disc length: 2728 seconds
#
# Revision: 0
# Processed by: cddbd v1.5.2PL0 Copyright (c) Steve Scherf et al.
# Submitted via: ExactAudioCopyFreeDBPlugin 1.0
#
DISCID=a90aa60c
DTITLE=รวมศิลปิน - รวมฮิต ซูซู and วงกะท้อน Disc 5
DYEAR=1900
DGENRE=
TTITLE0=นักร้องน้องใหม่
TTITLE1=มืสยูนืเวิร์ส
TTITLE2=มิสเตอร์ A T M
TTITLE3=สิงห์ไฮเวย์
TTITLE4=บึ๊ดจ้ำบึ๊ด
TTITLE5=ลูกผู้หญิง
TTITLE6=ลาแม่สาย
TTITLE7=สาวอุดร
TTITLE8=ทะเลป่วย
TTITLE9=40 ดีกรี
TTITLE10=เปิดใจออกมา
TTITLE11=ชาตินิยม
EXTD=
EXTT0=
EXTT1=
EXTT2=
EXTT3=
EXTT4=
EXTT5=
EXTT6=
EXTT7=
EXTT8=
EXTT9=
EXTT10=
EXTT11=
PLAYORDER=
